PathFileType	4	(X/Y/Z)	C:/Users/opensim2020/Desktop/walking_exp_matlab/subject02_walking06_straight_01.trc	
DataRate	CameraRate	NumFrames	NumMarkers	Units	OrigDataRate	OrigDataStartFrame	OrigNumFrames	
100.00	100.00	6	41	mm	100.00	934	205	
Frame#	Time	LFHD			RFHD			LBHD			RBHD			C7			T10			CLAV			STRN			RBAK			LSHO			LUPA			LELB			LFRM			LWRA			LWRB			LFIN			RSHO			RUPA			RELB			RFRM			RWRA			RWRB			RFIN			LASI			RASI			LPSI			RPSI			LTHI			LKNE			LTIB			LANK			LHEE			LTOE			RTHI			RKNE			RTIB			RANK			RHEE			RTOE			*39			*40			
		X1	Y1	Z1	X2	Y2	Z2	X3	Y3	Z3	X4	Y4	Z4	X5	Y5	Z5	X6	Y6	Z6	X7	Y7	Z7	X8	Y8	Z8	X9	Y9	Z9	X10	Y10	Z10	X11	Y11	Z11	X12	Y12	Z12	X13	Y13	Z13	X14	Y14	Z14	X15	Y15	Z15	X16	Y16	Z16	X17	Y17	Z17	X18	Y18	Z18	X19	Y19	Z19	X20	Y20	Z20	X21	Y21	Z21	X22	Y22	Z22	X23	Y23	Z23	X24	Y24	Z24	X25	Y25	Z25	X26	Y26	Z26	X27	Y27	Z27	X28	Y28	Z28	X29	Y29	Z29	X30	Y30	Z30	X31	Y31	Z31	X32	Y32	Z32	X33	Y33	Z33	X34	Y34	Z34	X35	Y35	Z35	X36	Y36	Z36	X37	Y37	Z37	X38	Y38	Z38	X39	Y39	Z39	X40	Y40	Z40	X41	Y41	Z41	

180	1.790	1447.80310	614.11115	1756.79602	1590.01831	630.99908	1740.40942	1450.06116	504.93256	1653.07324	1591.24500	509.29282	1632.33923	1524.10010	475.05719	1527.45068	1538.47266	416.29715	1256.00964	1501.74475	613.27313	1457.59290	1514.85266	663.06226	1283.95520	1601.42542	422.78629	1361.70386	1338.16431	531.25464	1494.62134	1261.60303	473.62646	1302.85559	1250.86914	439.20038	1165.75818	1238.07874	423.24469	1033.85779	1262.56311	461.07553	900.83228	1236.17688	411.81433	911.10748	1230.29199	419.95096	845.23181	1699.42505	576.46875	1502.87793	1801.88489	573.39630	1317.99207	1825.45703	605.83813	1173.35266	1836.38171	664.70123	1067.01563	1806.41357	741.08209	959.05469	1843.51514	701.19061	941.98187	1841.45947	755.72516	894.93719	1394.50952	645.23743	994.35016	1652.57483	651.83716	979.13153	1479.63953	437.17389	1031.97327	1594.01709	433.34512	1033.39709	1327.47559	650.55261	691.80090	1355.59546	688.11285	497.38162	1367.96045	654.96826	306.92923	1393.55835	691.94507	85.68597	1453.80725	676.89258	55.93099	1342.83264	836.88837	64.17635	1706.57751	554.11560	673.83130	1664.68433	528.04413	464.94266	1671.49329	465.08093	286.80023	1631.71118	424.88620	97.00703	1577.73254	383.07239	44.64761	1645.34827	572.76697	38.38181	1546.37610	507.48587	1796.86230	-3360.30591	2845.05420	1033.78210 
181	1.800	1445.84802	623.26239	1755.49133	1588.01941	640.72302	1739.53821	1448.79382	514.14832	1651.79395	1589.95154	519.15582	1631.29761	1522.97607	484.60638	1526.53796	1537.45251	425.32260	1255.23450	1500.42700	622.75250	1456.42505	1513.96948	672.34894	1282.73840	1600.55078	432.15353	1361.05994	1337.07666	540.28076	1493.26013	1260.78455	480.31961	1302.12512	1250.47754	445.12311	1165.37512	1237.93970	427.87952	1033.90173	1261.04065	464.38834	900.28912	1235.68201	414.76147	911.06763	1229.59265	422.32428	845.18329	1698.21082	586.55786	1502.08105	1800.90955	584.86743	1317.42285	1824.80750	618.59637	1173.12671	1835.13477	678.30762	1067.16479	1804.97168	755.50037	960.00085	1842.53381	716.12799	942.69073	1840.02356	771.08746	896.14227	1393.84595	654.60864	993.27386	1652.09851	660.37421	978.53882	1478.66504	446.55499	1030.62988	1592.77490	441.84717	1032.18433	1326.79041	659.44055	690.62769	1355.63806	698.16003	495.87354	1366.50623	673.30524	303.83145	1390.46240	720.24945	83.94118	1450.53113	706.15247	53.34534	1340.32190	866.40417	69.11960	1706.33276	560.47974	673.39130	1664.26123	532.32336	464.45761	1671.19165	467.34561	287.10071	1631.35388	425.44327	97.59843	1577.10474	383.40927	45.37455	1645.55151	572.85315	38.33383	1545.00732	517.04858	1795.85974	-3360.29883	2845.08154	1034.01233 
182	1.810	1443.78052	632.39502	1754.27014	1585.90015	650.41278	1738.59888	1447.36877	523.44440	1650.38757	1588.55981	529.00415	1630.18909	1521.69690	494.12183	1525.46326	1536.16919	434.32889	1254.19421	1499.12683	632.26147	1455.16748	1512.90759	681.62012	1281.45679	1599.78748	441.64200	1360.54297	1335.70886	549.30945	1491.80054	1260.27966	488.54694	1301.19922	1250.03198	451.29288	1164.88989	1237.42004	432.37158	1033.59521	1259.65613	467.99997	899.56812	1235.08582	418.13791	910.99487	1228.69519	424.88077	845.00647	1696.80774	596.35565	1501.23303	1799.90393	596.37555	1316.84094	1824.16760	631.40454	1172.96350	1833.97986	691.90643	1067.27979	1803.43665	769.76007	960.73969	1841.49304	730.95905	943.23187	1838.54639	786.20227	897.08289	1393.11377	664.05121	992.04340	1651.51965	668.97272	977.78119	1477.61487	455.50836	1029.67834	1591.75659	450.67059	1031.17786	1325.84961	668.13855	689.29059	1355.56470	708.03400	494.30939	1365.19067	690.95587	301.16815	1387.39990	747.59088	83.04420	1447.21082	734.50812	51.28648	1337.71362	894.59369	74.57769	1705.84277	566.71301	672.82629	1663.80212	536.59521	464.08441	1670.73608	469.65936	287.45831	1630.72144	425.76849	97.98096	1576.90784	383.67813	46.30494	1645.61365	572.94440	38.29687	1543.04712	526.40405	1794.39526	-3357.27344	2845.83545	1033.80176 
183	1.820	1441.70435	641.49597	1753.03271	1583.72693	660.07977	1737.58813	1445.81079	532.84015	1648.86755	1587.07263	538.87366	1628.98584	1520.13721	503.88837	1524.22400	1535.02673	443.67981	1253.35376	1497.65198	641.74670	1453.91699	1511.82214	690.96228	1280.15210	1598.55566	450.97296	1359.57947	1334.33228	558.56012	1490.39746	1258.99951	495.75873	1300.46313	1249.23438	457.68942	1164.27307	1236.50244	437.62222	1033.20642	1258.12524	472.10309	898.89911	1234.43152	421.96558	910.80682	1227.74365	427.83548	844.72614	1695.36536	606.18066	1500.22876	1798.39990	607.53259	1315.81726	1822.90454	643.84222	1172.24890	1832.96667	705.56213	1067.50464	1801.81067	783.81915	961.28192	1840.23767	745.46631	943.64893	1836.86462	800.99298	897.73132	1392.45569	673.67096	990.79553	1650.92773	677.79401	976.86694	1476.34998	465.11441	1028.19104	1590.32874	459.49588	1030.00171	1324.65662	676.66351	687.83405	1355.27417	717.78314	492.70636	1363.87573	708.07446	298.80322	1384.35571	773.69055	82.58407	1443.78564	761.74481	50.28782	1335.27100	921.45251	80.40274	1705.24500	572.92175	672.19214	1663.12073	540.85986	463.49237	1670.23376	471.91025	287.79547	1630.53552	426.36481	98.83476	1576.24365	384.10074	46.96591	1645.81299	573.04419	38.31227	1541.26807	535.80811	1793.26978	-3360.32593	2845.13452	1033.81091 
184	1.830	1439.44519	650.53192	1751.70447	1581.43713	669.72711	1736.56238	1444.09705	541.95190	1647.26379	1585.46265	548.74976	1627.71729	1518.82849	513.30951	1523.24731	1533.71472	452.95697	1252.31787	1496.03833	651.23364	1452.56299	1510.55591	700.34265	1278.81860	1596.88928	460.25687	1358.39880	1332.99561	568.07874	1488.94897	1258.24207	504.07779	1299.35242	1248.78967	464.59750	1163.64148	1235.97620	443.06003	1032.78345	1256.82605	476.33246	898.03180	1233.69861	426.15747	910.51080	1226.80908	431.32410	844.50836	1693.81555	615.90045	1499.10022	1797.11572	618.77930	1314.93298	1821.86511	656.46893	1171.81372	1831.22485	718.71149	1067.13330	1800.02637	797.60846	961.61053	1838.71997	759.60364	943.61932	1835.25586	815.53882	898.44928	1391.72009	683.42987	989.47980	1650.27600	686.67230	975.82855	1475.02686	474.67838	1027.08105	1588.77979	468.49963	1028.82898	1323.48572	685.13617	686.20764	1354.79504	727.55609	491.05148	1362.59521	724.59619	296.86572	1381.37061	798.78394	82.95159	1440.53271	787.83380	49.74586	1332.96399	946.91278	86.23218	1704.60034	579.07867	671.68231	1662.68384	545.22089	463.15298	1669.64453	474.26465	288.20898	1630.23499	426.99255	99.74132	1576.02698	385.11877	47.43295	1645.94470	573.12250	38.24690	1539.42590	545.21637	1791.82373	-3360.44312	2845.10034	1033.80969 
185	1.840	1437.11572	659.53271	1750.35364	1579.09546	679.35413	1735.51147	1442.45325	551.16815	1645.75354	1583.82373	558.65033	1626.45068	1517.25037	522.81842	1522.09277	1532.24158	462.33051	1251.19885	1494.42859	660.76111	1451.21692	1509.22058	709.79181	1277.47803	1595.62817	469.70056	1357.45068	1331.24597	577.29736	1487.40247	1257.13074	512.61230	1298.05725	1247.88867	471.80347	1162.80957	1234.93420	448.52908	1032.31641	1255.47559	481.06989	897.13513	1232.85913	430.77625	910.21002	1225.81152	435.00452	844.08466	1692.18250	625.49695	1497.88660	1795.43994	629.82312	1313.80872	1820.40747	668.80450	1171.07007	1829.56982	731.82397	1066.89429	1798.16260	811.12372	961.84216	1837.25732	773.60205	943.80188	1833.51428	829.79443	898.90039	1390.94055	693.33630	988.10590	1649.62061	695.72772	974.61304	1473.41565	484.26443	1025.70654	1587.07654	477.67587	1027.70374	1322.10925	693.57312	684.55804	1354.22900	737.26605	489.44299	1361.13501	740.65680	295.25720	1378.65784	822.75775	83.85950	1437.46631	812.62415	49.75369	1330.71106	970.82874	91.84323	1703.70557	585.07922	671.00214	1662.40552	549.74292	463.08740	1669.29541	476.57224	288.85956	1629.85339	427.48566	100.53606	1574.82312	384.83658	48.62620	1645.93713	573.26880	38.16953	1537.51147	554.56708	1790.43396	-3360.31763	2845.10547	1033.93506 
